<?xml version="1.0" standalone="no"?>
<!DOCTYPE svg PUBLIC "-//W3C//DTD SVG 20010904//EN"
 "http://www.w3.org/TR/2001/REC-SVG-20010904/DTD/svg10.dtd">
<svg version="1.0" xmlns="http://www.w3.org/2000/svg"
 width="256.000000pt" height="256.000000pt" viewBox="0 0 256.000000 256.000000"
 preserveAspectRatio="xMidYMid meet">

<g transform="translate(0.000000,256.000000) scale(0.100000,-0.100000)"
fill="#000000" stroke="none">
<path d="M1093 2136 c-187 -50 -337 -160 -383 -282 -31 -83 -25 -197 14 -277
57 -117 185 -211 351 -259 69 -20 103 -23 245 -23 142 0 176 3 245 23 168 49
299 145 353 259 24 51 27 70 27 158 0 92 -2 104 -30 153 -40 74 -120 144 -218
192 -124 60 -180 72 -357 76 -139 4 -164 2 -247 -20z m411 -22 c117 -30 235
-79 251 -104 9 -15 -42 -25 -130 -25 -64 0 -93 6 -148 28 -89 36 -179 37 -246
3 -25 -13 -73 -30 -106 -38 -54 -13 -66 -13 -125 3 -124 33 -123 32 -55 66 54
27 104 44 205 72 59 16 285 13 354 -5z m-14 -140 c82 -34 188 -37 267 -6 l53
20 34 -39 c39 -43 76 -109 76 -136 0 -14 -13 -21 -52 -31 -29 -6 -88 -25 -132
-42 l-79 -29 -101 88 c-193 167 -202 170 -306 96 -63 -45 -92 -53 -119 -36
-12 8 -2 22 47 70 34 33 77 65 94 70 51 16 146 5 218 -25z m-554 -10 c69 -22
98 -26 155 -22 l70 5 -30 -31 c-49 -51 -37 -86 31 -86 28 0 54 11 104 45 36
25 71 45 77 45 26 0 74 -34 193 -137 93 -80 124 -113 122 -128 -2 -14 -12 -21
-31 -23 -22 -3 -39 7 -78 43 -65 60 -78 49 -16 -13 53 -54 58 -77 22 -94 -22
-10 -29 -7 -71 31 -57 53 -69 47 -20 -10 42 -49 43 -55 17 -69 -27 -14 -26
-14 -71 26 -45 41 -54 32 -15 -14 25 -30 25 -31 5 -37 -30 -10 -52 9 -55 46
-3 34 -34 69 -61 69 -8 0 -14 8 -14 17 0 25 -30 53 -58 53 -14 0 -33 7 -42 15
-11 10 -46 16 -106 19 -59 3 -104 11 -134 24 -25 11 -82 30 -128 43 -81 22
-83 23 -77 48 12 48 94 161 117 161 6 0 48 -12 94 -26z m-95 -229 c100 -34
119 -45 119 -69 0 -26 27 -66 44 -66 7 0 27 -13 44 -30 18 -16 39 -30 48 -30
9 0 27 -9 41 -20 14 -11 35 -20 47 -20 12 0 27 -9 33 -19 11 -17 24 -19 105
-19 62 0 100 5 115 14 12 8 31 14 41 14 11 0 25 7 32 15 7 8 32 24 56 35 24
10 44 25 44 33 0 8 11 18 24 21 35 9 56 33 56 66 0 21 7 30 28 38 39 16 185
62 194 62 17 0 7 -63 -17 -114 -78 -165 -311 -276 -579 -276 -299 0 -568 159
-593 351 -5 36 -4 39 19 39 13 0 58 -11 99 -25z m221 -52 c14 -13 21 -14 30
-5 18 18 56 14 67 -6 7 -13 18 -17 39 -14 35 5 56 -18 49 -54 -4 -21 -1 -25
14 -21 25 7 59 -20 59 -47 0 -49 -58 -64 -86 -21 -9 14 -20 22 -26 19 -17 -11
-56 5 -61 25 -3 14 -11 18 -26 14 -26 -7 -51 13 -51 39 0 15 -5 19 -19 15 -27
-7 -51 11 -51 37 0 40 29 49 62 19z"/>
<path d="M1968 1159 c-13 -7 -18 -23 -18 -60 0 -50 0 -50 -22 -35 -29 20 -87
20 -116 0 -76 -53 -67 -224 14 -254 14 -6 48 -10 76 -10 44 0 54 4 84 34 l34
34 0 151 c0 137 -2 151 -17 151 -10 0 -26 -5 -35 -11z m-38 -159 c24 -24 27
-86 4 -118 -17 -25 -65 -30 -82 -9 -16 19 -25 64 -18 91 14 54 60 72 96 36z"/>
<path d="M384 1070 c-42 -17 -54 -52 -54 -165 l0 -105 30 0 30 0 0 94 c0 87 2
96 22 110 29 20 34 20 58 -4 17 -17 20 -33 20 -110 l0 -90 30 0 30 0 0 90 c0
77 3 93 20 110 24 24 29 24 58 4 20 -14 22 -23 22 -110 l0 -94 30 0 30 0 0
111 c0 109 0 111 -29 140 -24 23 -38 29 -73 29 -24 0 -54 -7 -66 -16 -20 -14
-24 -14 -44 0 -24 17 -80 20 -114 6z"/>
<path d="M820 1073 c-79 -29 -105 -175 -43 -237 34 -35 93 -50 140 -37 39 11
83 47 83 68 0 15 -66 18 -75 3 -9 -14 -78 -13 -93 2 -7 7 -12 20 -12 30 0 16
10 18 95 18 l95 0 0 31 c0 45 -28 98 -61 114 -27 15 -99 19 -129 8z m98 -65
c26 -26 13 -38 -43 -38 -57 0 -66 8 -39 34 18 19 65 21 82 4z"/>
<path d="M1103 1060 c-50 -30 -63 -66 -63 -170 l0 -90 35 0 35 0 0 83 c0 97
14 127 61 127 27 0 29 3 29 35 0 33 -2 35 -32 35 -18 0 -47 -9 -65 -20z"/>
<path d="M1253 1047 c-32 -30 -37 -41 -41 -90 -9 -106 33 -157 127 -157 63 0
93 15 116 60 20 40 20 40 -24 40 -31 0 -41 -4 -46 -20 -9 -28 -70 -28 -85 -1
-16 30 -12 107 6 125 22 22 61 20 76 -4 9 -14 24 -20 50 -20 41 0 44 6 27 43
-16 36 -60 57 -118 57 -44 0 -56 -5 -88 -33z"/>
<path d="M1536 1058 c-13 -13 -27 -33 -31 -45 -6 -21 -3 -23 26 -23 18 0 40 6
48 14 29 26 81 24 81 -3 0 -19 -18 -31 -48 -31 -77 0 -130 -51 -117 -111 10
-43 40 -59 111 -59 53 0 67 4 93 26 31 25 31 27 31 119 0 89 -1 95 -26 114
-39 31 -133 30 -168 -1z m124 -152 c0 -31 -25 -56 -56 -56 -48 0 -42 58 7 71
42 12 49 10 49 -15z"/>
<path d="M2085 1047 c-79 -79 -45 -223 58 -246 145 -33 238 140 132 246 -30
30 -38 33 -95 33 -57 0 -65 -3 -95 -33z m137 -44 c24 -21 25 -99 1 -125 -20
-22 -61 -23 -85 -1 -24 21 -25 99 -1 125 20 22 61 23 85 1z"/>
</g>
</svg>
